<!DOCTYPE svg PUBLIC "-//W3C//DTD SVG 1.1//EN" "http://www.w3.org/Graphics/SVG/1.1/DTD/svg11.dtd">

<!-- Uploaded to: SVG Repo, www.svgrepo.com, Transformed by: SVG Repo Mixer Tools -->
<svg width="256px" height="256px" viewBox="0 0 16.00 16.00" xmlns="http://www.w3.org/2000/svg" fill="#EBCB8B" stroke="#EBCB8B" stroke-width="0.00016" transform="rotate(0)">

<g id="SVGRepo_bgCarrier" stroke-width="0"/>

<g id="SVGRepo_tracerCarrier" stroke-linecap="round" stroke-linejoin="round" stroke="#000000" stroke-width="0.288"/>

<g id="SVGRepo_iconCarrier">

<path fill-rule="evenodd" clip-rule="evenodd" d="M14.25 5.75v-4h-1.5v2.542c-1.145-1.359-2.911-2.209-4.84-2.209-3.177 0-5.92 2.307-6.16 5.398l-.02.269h1.501l.022-.226c.212-2.195 2.202-3.94 4.656-3.94 1.736 0 3.244.875 4.05 2.166h-2.83v1.5h4.163l.962-.975V5.75h-.004zM8 14a2 2 0 1 0 0-4 2 2 0 0 0 0 4z"/>

</g>

</svg>